<svg xmlns="http://www.w3.org/2000/svg" width="28" height="28" viewBox="0 0 32 32">
  <defs><linearGradient id="metal" x1="0" y1="0" x2="1" y2="1"><stop stop-color="#daeaf4"/><stop offset="1" stop-color="#8caabb"/></linearGradient></defs>
  <path d="m3 19 18-8 8 4v5l-18 9-8-5Z" fill="#4f7186"/><path d="m3 19 18-8 8 4-18 9Z" fill="#b0c7d6"/><path d="m3 14 18-8 8 4v4l-18 9-8-5Z" fill="#65879a"/><path d="m3 14 18-8 8 4-18 9Z" fill="url(#metal)"/><path d="m3 9 18-7 8 4v4l-18 8-8-5Z" fill="#7392a5"/><path d="m3 9 18-7 8 4-18 8Z" fill="url(#metal)"/><path d="m4 9 7 4 17-7M4 14l7 4m-7 1 7 4" fill="none" stroke="#e4f2fa" stroke-width="1"/><path d="m10 6 6 3v17l-4 2V11L6 8Z" fill="#3e5969" stroke="#9cb4bf" stroke-width=".7"/>
</svg>
